<svg height="512pt" viewBox="-1 0 512 512.00052" width="512pt" xmlns="http://www.w3.org/2000/svg"><path d="m510.917969 256.542969c0 104.613281-62.882813 194.542969-152.921875 234.039062-25.261719 11.097657-52.664063 18.207031-81.421875 20.554688-6.964844.570312-14.003907.863281-21.113281.863281-36.296876 0-70.820313-7.558594-102.082032-21.230469-9.488281-4.128906-18.671875-8.820312-27.515625-14.042969-5.078125-2.992187-10.042969-6.152343-14.878906-9.476562-65.148437-44.753906-108.492187-118.921875-110.878906-203.335938v-.011718c-.074219-2.449219-.105469-4.898438-.105469-7.359375 0-141.085938 114.371094-255.460938 255.460938-255.460938 60.058593 0 115.265624 20.71875 158.882812 55.410157h.011719c.761719.613281 1.511719 1.21875 2.261719 1.824218 26.328124 21.425782 48.296874 48.003906 64.386718 78.179688 19.089844 35.785156 29.914063 76.660156 29.914063 120.046875zm0 0" fill="#4092b5"/><path d="m393 227.566406c0 82.957032-58.015625 152.367188-135.683594 169.863282-12.367187 2.792968-25.234375 4.265624-38.445312 4.265624-96.167969 0-174.128906-77.960937-174.128906-174.128906 0-96.179687 77.960937-174.140625 174.128906-174.140625 13.210937 0 26.078125 1.46875 38.445312 4.265625 77.667969 17.496094 135.683594 86.90625 135.683594 169.875zm0 0" fill="#c9700e"/><path d="m393 227.566406c0 82.957032-58.015625 152.367188-135.683594 169.863282-77.660156-17.507813-135.675781-86.90625-135.675781-169.863282 0-82.96875 58.015625-152.371094 135.675781-169.875 77.667969 17.496094 135.683594 86.90625 135.683594 169.875zm0 0" fill="#ea9228"/><path d="m433.988281 411.820312c-21.761719 32.351563-48.035156 58.398438-75.992187 78.761719-31.382813 13.777344-66.0625 21.417969-102.535156 21.417969-53.628907 0-103.394532-16.515625-144.476563-44.75 13.855469-13.148438 33.179687-26.839844 53.300781-42.785156 39.632813-30.289063 82.15625-68.886719 117.242188-119.292969 35.324218-50.246094 56.992187-103.433594 71.871094-151.054687 15.527343-46.835938 24.242187-88.09375 48.933593-96.625 3.515625-1.375 7.589844-1.710938 12.011719-1 .6875.113281 1.386719.25 2.097656.417968 20.820313 4.773438 48.546875 31.527344 64.5625 79.585938 1.4375 4.296875 2.773438 8.757812 4.003906 13.390625 18.871094 67.335937 13.710938 172.90625-51.019531 261.933593zm0 0" fill="#ffe161"/><path d="m418.671875 74.738281c-16.140625-.644531-1.261719 134.246094-87.703125 245.335938-61.695312 79.273437-145.734375 125.800781-177.589844 170.695312-14.929687-6.492187-29.109375-14.398437-42.394531-23.519531 13.855469-13.148438 33.179687-26.839844 53.300781-42.785156 39.632813-30.289063 82.15625-68.886719 117.242188-119.292969 35.324218-50.246094 56.992187-103.433594 71.871094-151.054687 15.527343-46.835938 24.242187-88.09375 48.933593-96.625 3.515625-1.375 7.589844-1.710938 12.011719-1h.011719c.6875.113281 1.386719.25 2.085937.417968l.175782 1.40625zm0 0" fill="#ffb43b"/><path d="m425.207031 14.472656 21.085938 61.382813-27.621094-1.117188-34.894531-1.417969-5.371094-48.429687c-1.214844-10.976563 6.105469-21.082031 16.917969-23.339844l5.230469-1.09375c10.574218-2.210937 21.144531 3.796875 24.652343 14.015625zm0 0" fill="#5ad199"/><path d="m418.671875 74.742188-34.894531-1.417969-5.371094-48.433594c-1.214844-10.976563 6.105469-21.078125 16.917969-23.339844l4.035156-.84375zm0 0" fill="#2bab8d"/><path d="m195.671875 163.710938c-39.707031 30.75-90.121094 38.058593-134.664063 24.105468-2.347656-46.617187 17.351563-93.601562 57.054688-124.339844 39.71875-30.75 90.132812-38.058593 134.675781-24.105468 2.34375 46.617187-17.351562 93.601562-57.066406 124.339844zm0 0" fill="#5ad199"/><path d="m184.859375 252.539062-7.457031 15.566407-13.34375 27.839843 1.761718-44.148437c1.40625-26.234375-5.359374-54.082031-15.671874-80.027344-3.285157-8.257812.28125-17.652343 8.257812-21.570312 2.429688-1.199219 4.984375-1.753907 7.484375-1.753907 2.117187 0 4.191406.398438 6.132813 1.148438 4.828124 1.867188 8.789062 5.890625 10.25 11.375 8.007812 29.945312 8.863281 61.320312 2.585937 91.570312zm0 0" fill="#873e1f"/><path d="m184.859375 252.539062-7.457031 15.566407.648437-16.308594c1.40625-26.234375-5.359375-54.082031-15.671875-80.027344-3.285156-8.257812.28125-17.652343 8.257813-21.570312.457031-.230469.917969-.429688 1.386719-.605469 4.828124 1.867188 8.789062 5.890625 10.25 11.375 8.007812 29.945312 8.863281 61.320312 2.585937 91.570312zm0 0" fill="#a35f31"/><path d="m276.574219 511.136719c-6.964844.570312-14.003907.863281-21.113281.863281-36.296876 0-70.820313-7.558594-102.082032-21.230469-9.488281-4.128906-18.671875-8.820312-27.515625-14.042969-5.078125-2.992187-10.042969-6.152343-14.878906-9.476562-65.148437-44.753906-108.492187-118.921875-110.878906-203.335938v-.011718c6.089843-14.160156 14.199219-25.679688 23.980469-33.4375 16.214843-12.878906 32.773437-16.984375 48.859374-16.140625 29.332032 1.519531 57.109376 19.488281 78.410157 30.746093h.011719c9.90625 5.234376 18.414062 9.019532 25.035156 9.019532 28.632812 0 92.757812-70.902344 152.316406-23.625 53.90625 42.761718 57.367188 200.164062-52.144531 280.671875zm0 0" fill="#f73e5d"/><path d="m125.863281 476.726562c-5.078125-2.992187-10.042969-6.152343-14.878906-9.476562-65.148437-44.753906-108.492187-118.929688-110.878906-203.347656 6.089843-14.160156 14.199219-25.679688 23.980469-33.4375 16.214843-12.878906 32.773437-16.984375 48.859374-16.140625 29.332032 1.519531 57.109376 19.488281 78.410157 30.746093-113.253907 0-77.398438 154.363282-25.492188 231.65625zm0 0" fill="#e02b2b"/><path d="m252.738281 39.371094-191.730469 148.445312c-2.347656-46.617187 17.351563-93.601562 57.054688-124.339844 39.71875-30.75 90.132812-38.058593 134.675781-24.105468zm0 0" fill="#2bab8d"/><path d="m330.910156 304.808594c0-18.011719-9.125-32.613282-20.382812-32.613282-11.253906 0-20.378906 14.601563-20.378906 32.613282 0 18.011718 9.125 32.609375 20.378906 32.609375 11.257812 0 20.382812-14.597657 20.382812-32.609375zm0 0" fill="#ff839e"/><g fill="#c9700e"><path d="m333.855469 114.742188c0 6.378906-5.171875 11.550781-11.550781 11.550781-6.378907 0-11.550782-5.171875-11.550782-11.550781 0-6.378907 5.171875-11.546876 11.550782-11.546876 6.378906 0 11.550781 5.167969 11.550781 11.546876zm0 0"/><path d="m302.148438 91.363281c0 4.066407-3.292969 7.359375-7.359376 7.359375-4.066406 0-7.359374-3.292968-7.359374-7.359375 0-4.066406 3.292968-7.359375 7.359374-7.359375 4.066407 0 7.359376 3.292969 7.359376 7.359375zm0 0"/><path d="m300.457031 123.714844c0 5.847656-4.742187 10.589844-10.589843 10.589844-5.851563 0-10.589844-4.742188-10.589844-10.589844 0-5.851563 4.738281-10.589844 10.589844-10.589844 5.847656 0 10.589843 4.738281 10.589843 10.589844zm0 0"/><path d="m140.738281 215.128906c0 5.847656-4.742187 10.585938-10.589843 10.585938-5.847657 0-10.589844-4.738282-10.589844-10.585938 0-5.851562 4.742187-10.589844 10.589844-10.589844 5.847656 0 10.589843 4.738282 10.589843 10.589844zm0 0"/></g></svg>